PathFileType	4	(X/Y/Z)	C:/Users/beibeiliu/ov580/test_trc/capture2\sequence.35_training_dense_left.trc
DataRate	CameraRate	NumFrames	NumMarkers	Units	OrigDataRate	OrigDataStartFrame	OrigNumFrames
120	120	18	19	mm	120	171	272
Frame#	Time	ThumbCMC			ThumbMCP			ThumbIP			ThumbTip			IndexMCP			IndexPIP			IndexTip			MiddleMCP			MiddlePIP			MiddleTip			RingMCP			RingPIP			RingTip			PinkyMCP			PinkyPIP			PinkyTip			BackHand1			BackHand2			BackHand3	
		X0	Y0	Z0	X1	Y1	Z1	X2	Y2	Z2	X3	Y3	Z3	X4	Y4	Z4	X5	Y5	Z5	X6	Y6	Z6	X7	Y7	Z7	X8	Y8	Z8	X9	Y9	Z9	X10	Y10	Z10	X11	Y11	Z11	X12	Y12	Z12	X13	Y13	Z13	X14	Y14	Z14	X15	Y15	Z15	X16	Y16	Z16	X17	Y17	Z17	X18	Y18	Z18	
170	1.41667	-88.0214	86.1148	39.2197	-61.9148	80.0754	53.8031	-40.2296	66.5077	53.4848	-24.6197	41.8025	47.9167	-34.473	46.5389	1.25305	-19.9408	29.4158	19.085	-39.7317	29.7312	46.6178	-44.1152	24.4177	-7.32477	-28.4942	11.3264	19.1534	-53.4266	17.6456	43.3168	-56.1562	6.86952	-3.05148	-47.5384	-0.266094	26.2281	-65.674	15.8674	44.4843	-76.5691	-1.31095	2.18288	-65.9215	-4.50512	28.5259	-81.3189	22.0379	43.6905	-107.588	39.5092	-8.07089	-132.081	54.5465	0.706052	-102.099	74.1816	3.02491	
171	1.425	-88.7014	82.6866	34.0159	-62.7473	69.616	41.4084	-40.1633	53.4312	35.5447	-29.6765	35.7493	29.4098	-40.5272	42.9771	-13.8226	-28.1483	22.0869	-0.460436	-45.0832	23.179	29.5265	-53.4271	23.7091	-23.1812	-37.3286	5.43186	-5.0504	-57.106	14.1508	28.0261	-66.7886	9.44444	-18.6352	-55.6889	-6.72374	3.88118	-73.3834	13.8267	29.7545	-87.3167	-0.903743	-11.9408	-73.4587	-8.43924	15.0629	-84.794	14.4019	30.8853	-112.24	39.917	-17.3402	-137.954	59.5594	-1.148	-103.399	76.3015	0.96068	
172	1.43333	-87.5582	77.4428	24.777	-58.6897	65.2694	28.6429	-40.0834	47.4844	15.5333	-28.6409	27.3374	6.36885	-52.8346	44.3852	-31.8522	-35.4284	18.3801	-25.5244	-44.5519	17.8079	6.18712	-67.0248	23.5434	-40.3427	-46.5383	2.6135	-26.1868	-62.9817	10.0981	8.8669	-75.1234	7.88257	-36.7249	-64.3991	-8.1027	-13.1419	-79.497	7.53392	11.1572	-98.492	-2.79696	-27.4872	-82.2323	-10.6198	-1.89753	-93.1226	14.4934	18.2563	-117.829	45.7946	-24.7672	-140.807	59.1867	-6.80943	-110.9	73.1761	-7.69407	
173	1.44167	-90.5261	71.2036	9.1411	-63.5546	56.5869	4.79637	-41.8904	42.358	-9.69192	-39.3296	23.4531	-22.6845	-69.0205	42.6631	-54.2223	-47.7423	16.9691	-50.5272	-56.4425	13.8933	-20.3725	-81.5903	24.3263	-60.5193	-60.0098	0.520143	-50.434	-66.4531	7.21054	-13.9326	-92.8916	10.8066	-54.0174	-77.5634	-11.9698	-38.5319	-80.6031	7.17122	-8.81118	-108.12	-0.884727	-44.7142	-89.9211	-11.6172	-23.4376	-97.3582	9.20593	0.89528	-130.438	48.4151	-32.3519	-144.281	57.4662	-10.8659	-112.881	74.2746	-18.4734	
174	1.45	-94.8234	67.0913	-4.46726	-71.4739	54.0428	-16.8157	-52.1103	42.2313	-36.1402	-55.1821	24.5085	-51.9739	-86.0193	49.4127	-72.7506	-69.3938	21.1546	-77.8814	-66.5114	18.152	-44.3891	-100.235	27.9381	-79.1858	-78.3078	2.81062	-74.7873	-76.0744	2.14079	-41.4221	-111.726	10.2328	-73.459	-88.0024	-5.53714	-61.8399	-89.555	4.18683	-30.7414	-123.934	0.653844	-61.0545	-100.442	-11.3284	-49.1154	-101.568	4.52095	-20.5656	-145.254	44.2691	-41.4031	-154.822	54.6763	-13.6424	-124.734	72.2305	-24.6765	
175	1.45833	-104.052	66.8946	-13.1887	-78.4628	57.805	-34.309	-69.3319	46.7434	-56.7447	-65.7941	32.4337	-77.172	-111.475	52.6036	-87.6501	-91.7813	34.9817	-102.839	-77.8524	24.8903	-71.3902	-120.985	34.1734	-93.8382	-99.4708	12.0044	-98.5064	-87.2181	9.1412	-60.366	-129.01	17.8022	-86.5528	-103.145	1.6322	-82.9246	-96.77	5.38728	-53.3603	-139.967	4.11501	-75.5347	-114.697	-8.19753	-70.3578	-105.924	3.35641	-40.8311	-156.684	44.4864	-39.848	-160.597	50.9427	-14.7819	-137.309	70.7863	-28.3994	
176	1.46667	-113.611	68.612	-26.6784	-91.9342	63.7482	-48.1765	-84.4351	57.1162	-72.4175	-86.3845	44.0189	-94.2327	-135.587	61.3461	-94.8065	-116.768	42.9411	-112.835	-97.6059	35.24	-90.617	-142.038	42.4081	-101.714	-118.179	26.7798	-112.233	-98.3444	20.3793	-77.7453	-147.573	23.6571	-94.9766	-121.695	7.64284	-98.964	-108.113	15.157	-66.2519	-152.823	12.9271	-83.6283	-125.726	-1.96569	-84.7166	-114.462	6.76091	-57.3891	-170.172	40.2557	-42.8846	-169.798	43.4078	-15.2058	-151.033	70.1377	-33.7164	
177	1.475	-125.222	76.0402	-30.8458	-106.641	72.9944	-57.6262	-102.432	69.6733	-81.4332	-109.659	53.8982	-105.803	-158.044	71.9096	-101.17	-141.029	57.1464	-121.17	-114.385	50.8652	-99.6367	-162.745	51.1711	-102.482	-135.494	36.9328	-119.288	-115.612	31.2246	-91.4578	-162.726	33.9066	-101.466	-137.414	20.0714	-108.898	-120.067	25.2932	-76.8228	-168.655	13.8176	-86.6262	-139.669	6.89299	-96.7689	-123.602	15.0419	-67.8455	-182.177	38.5666	-47.493	-176.515	36.0992	-13.5187	-166.523	67.7647	-31.1528	
178	1.48333	-139.295	81.1077	-34.5803	-126.753	78.9245	-62.1748	-119.46	82.304	-90.9795	-124.912	66.9616	-111.87	-177.081	76.221	-97.5503	-161.789	63.9704	-123.284	-129.757	62.6068	-105.14	-178.845	58.6176	-108.018	-151.397	49.1945	-122.841	-128.099	45.3036	-97.1158	-177.358	37.9427	-102.111	-147.405	27.2737	-112.403	-130.194	36.1853	-84.8782	-176.215	17.0382	-93.9245	-150.324	17.6184	-102.726	-131.465	26.7863	-77.1126	-191.049	34.6496	-47.0186	-183.629	37.7805	-17.8226	-178.783	69.2922	-31.0771	
179	1.49167	-152.11	83.9901	-32.0923	-138.165	88.306	-58.7602	-136.936	87.9913	-89.4155	-140.133	75.7391	-108.732	-193.587	75.3746	-99.4027	-178.866	73.4264	-123.081	-147.316	66.3857	-108.739	-191.827	59.9404	-103.144	-167.529	55.6912	-123.593	-139.384	52.1742	-99.1959	-186.337	34.907	-101.018	-158.73	36.9051	-114.309	-138.294	43.2174	-85.5657	-181.414	18.9423	-95.2553	-153.891	25.4971	-103.441	-137.26	33.1747	-78.7802	-196.884	32.686	-43.7512	-186.193	35.0581	-15.0301	-188.845	65.3157	-27.7948	
180	1.5	-163.668	85.6724	-30.0277	-148.681	93.5513	-55.1964	-147.501	97.1382	-88.8824	-151.546	81.6097	-109.988	-203.14	75.4672	-90.7842	-185.798	74.5456	-118.851	-155.421	78.1354	-106.912	-198.716	63.4083	-103.941	-170.864	62.5175	-120.313	-145.943	61.6636	-94.0076	-191.94	39.8089	-103.956	-166.104	45.4166	-113.752	-144.774	49.8516	-84.0833	-186.627	26.8436	-93.6812	-160.979	31.4332	-104.184	-141.912	40.068	-80.358	-204.362	37.4744	-44.3249	-196.905	32.0661	-17.0808	-196.336	62.4296	-26.7781	
181	1.50833	-172.175	86.4093	-26.8285	-156.785	99.5396	-54.6309	-153.848	104.395	-79.5261	-157.167	93.1318	-105.744	-210.594	82.2215	-92.063	-194.515	81.7604	-114.841	-160.571	87.2665	-101.342	-204.241	65.4474	-99.4474	-179.111	70.5592	-116.939	-151.247	67.3015	-87.3375	-196.687	43.3997	-97.4539	-165.631	52.1659	-108.474	-151.057	55.9828	-81.7672	-190.588	25.8577	-90.6359	-164.65	40.5671	-101.461	-145.462	46.631	-76.4675	-209.105	37.8297	-42.6563	-198.517	31.4611	-12.8288	-205.845	63.3515	-27.6734	
182	1.51667	-176.905	86.7103	-19.4352	-162.034	100.68	-48.5647	-158.613	108.39	-76.0022	-159.863	101.19	-98.8719	-214.507	86.1076	-85.2479	-198.376	89.1266	-111.575	-164.517	91.6346	-97.0366	-207.686	71.0846	-96.8582	-176.758	74.5434	-112.158	-156.12	72.6822	-86.5604	-198.042	54.4747	-98.1643	-168.943	58.5326	-104.859	-155.304	59.7675	-72.0923	-192.346	33.4537	-91.6613	-165.818	39.7588	-101.326	-149.07	50.869	-73.2741	-210.994	36.3848	-41.8261	-203.551	32.8713	-10.9751	-209.715	64.811	-22.1991	
183	1.525	-184.249	88.0701	-17.3291	-166.786	103.56	-43.5423	-163.446	111.71	-69.4971	-165.497	99.5832	-94.3306	-218.032	87.1302	-84.7694	-196.826	97.2762	-108.538	-169.52	98.4807	-93.6014	-210.747	71.2262	-92.8623	-179.364	79.7369	-108.8	-159.786	78.519	-78.4714	-200.654	55.0584	-94.8406	-169.665	61.283	-102.184	-159.022	65.9667	-71.9917	-194.819	35.2322	-88.6843	-169.501	49.6394	-97.6567	-150.746	59.0937	-75.5373	-214.655	40.7646	-38.0438	-208.704	30.6132	-11.3009	-214.791	64.6663	-18.4722	
184	1.53333	-190.026	92.2894	-16.0201	-171.251	105.152	-39.1323	-167.572	111.302	-64.9851	-167.127	105.913	-87.4956	-220.407	89.9981	-80.7016	-202.728	97.9908	-103.977	-172.737	97.5305	-88.6012	-211.116	75.0762	-94.8118	-185.859	85.796	-106.513	-163.182	84.295	-76.6433	-202.006	57.3336	-95.8838	-174.393	67.1068	-99.7198	-161.454	68.9017	-66.3846	-196.304	40.3271	-88.4503	-171.353	54.3509	-95.4865	-153.65	59.4842	-70.0521	-219.276	40.5371	-39.0823	-211.03	34.4968	-9.5608	-220.772	67.1742	-19.3387	
185	1.54167	-192.696	92.5712	-11.0283	-175.173	105.541	-35.7384	-170.513	114.891	-62.0373	-170.034	105.632	-85.4077	-222.167	94.5298	-80.4982	-202.577	100.66	-100.483	-174.645	100.334	-82.7535	-215.374	82.1262	-89.9332	-186.852	86.42	-102.249	-166.494	84.9754	-72.4548	-205.573	60.7754	-88.6317	-178.633	71.7832	-98.3583	-165.052	72.9425	-65.5252	-200.101	44.0916	-81.5461	-170.805	55.7176	-91.0763	-158.866	63.5244	-66.1298	-223.195	43.3585	-37.4735	-217.114	38.1257	-10.6487	-224.774	69.9495	-17.1641	
186	1.55	-197.427	96.0791	-5.73185	-177.856	107.751	-30.6178	-170.005	118.873	-54.4824	-168.91	111.773	-78.2942	-222.792	96.4455	-73.8229	-198.883	105.156	-96.3985	-175.768	103.758	-78.3728	-215.712	79.8546	-84.6531	-185.182	90.9801	-97.2878	-166.917	87.1211	-67.1117	-205.408	66.6193	-89.039	-175.717	72.1755	-92.6717	-166.489	71.7623	-58.2278	-198.554	44.3065	-83.9876	-174.767	58.7513	-88.1104	-163.116	68.0723	-58.1488	-224.305	40.0159	-35.6609	-223.223	36.812	-8.55787	-228.227	71.0937	-11.6891	
187	1.55833	-200.052	91.5879	-3.29899	-180.789	105.424	-24.7788	-171.607	118.723	-49.9585	-170.135	114.212	-75.5534	-222.709	98.9632	-74.5896	-202.994	108.458	-93.8168	-174.582	106.009	-69.3421	-214.559	87.1908	-84.2988	-184.223	90.7041	-94.3063	-167.471	88.0143	-63.3896	-205.755	69.5757	-85.9796	-177.133	76.7243	-87.8701	-166.925	74.4839	-57.2278	-198.838	46.3576	-81.4048	-171.507	58.5796	-83.471	-163.486	65.353	-52.8144	-226.631	48.1247	-36.4961	-223.57	35.7292	-8.03119	-231.3	68.5663	-14.571	
